<?xml version="1.0" encoding="UTF-8"?>
<svg xmlns="http://www.w3.org/2000/svg" xmlns:xlink="http://www.w3.org/1999/xlink" width="286pt" height="244pt" viewBox="0 0 286 244">
<path fill-rule="nonzero" fill="rgb(15.299988%, 66.699219%, 88.198853%)" fill-opacity="1" d="M 143.429688 154.125 L 118.371094 152.375 C 118.890625 153.324219 119.449219 154.246094 120.050781 155.125 L 143.671875 154.195312 C 143.589844 154.175781 143.511719 154.144531 143.429688 154.125 M 174.550781 149.105469 L 154.390625 173.683594 C 155.949219 173.863281 157.519531 173.976562 159.109375 174.015625 L 176.449219 147.855469 C 175.828125 148.273438 175.199219 148.695312 174.550781 149.09375 Z M 178.871094 146.113281 L 160.371094 174.035156 C 162.019531 174.035156 163.691406 173.976562 165.378906 173.835938 L 180.75 144.636719 C 180.148438 145.136719 179.519531 145.636719 178.871094 146.125 Z M 145.980469 154.753906 L 120.5 155.753906 C 121.160156 156.675781 121.871094 157.566406 122.621094 158.40625 L 146.5 154.84375 C 146.328125 154.816406 146.148438 154.785156 145.980469 154.746094 Z M 116.71875 148.945312 C 117.121094 149.90625 117.550781 150.835938 118.011719 151.734375 L 140.96875 153.34375 L 116.710938 148.953125 Z M 194.488281 128.90625 L 187.160156 168.285156 C 189.050781 167.496094 190.929688 166.625 192.820312 165.675781 L 196.179688 125.675781 C 195.570312 126.953125 194.988281 128.035156 194.480469 128.90625 Z M 155.238281 155.425781 L 155.449219 155.363281 L 155.070312 155.433594 L 154.988281 155.433594 L 130.21875 164.835938 C 131.28125 165.523438 132.390625 166.183594 133.558594 166.816406 L 156.140625 155.375 C 155.839844 155.394531 155.539062 155.40625 155.25 155.425781 Z M 197.910156 121.695312 L 194.269531 164.933594 C 196.179688 163.933594 198.089844 162.84375 199.988281 161.683594 L 199.269531 117.804688 C 198.828125 119.203125 198.371094 120.503906 197.898438 121.695312 Z M 187.070312 138.636719 L 173.320312 172.65625 C 175.121094 172.273438 176.929688 171.824219 178.75 171.285156 L 188.871094 136.625 C 188.328125 137.253906 187.71875 137.933594 187.070312 138.636719 Z M 183.058594 142.613281 L 166.699219 173.703125 C 168.441406 173.523438 170.191406 173.253906 171.949219 172.925781 L 184.910156 140.863281 C 184.328125 141.433594 183.710938 142.023438 183.070312 142.613281 Z M 170.230469 151.496094 L 148.820312 172.734375 C 150.269531 173.066406 151.730469 173.335938 153.21875 173.535156 L 172.089844 150.523438 C 171.480469 150.855469 170.859375 151.175781 170.230469 151.484375 Z M 151.800781 155.445312 L 126.441406 162.074219 C 127.390625 162.855469 128.390625 163.605469 129.441406 164.324219 L 152.75 155.476562 C 152.429688 155.476562 152.109375 155.464844 151.789062 155.445312 Z M 192.601562 131.804688 C 192.601562 131.804688 192 132.714844 190.859375 134.175781 L 180.160156 170.855469 C 182.011719 170.273438 183.871094 169.605469 185.730469 168.863281 L 192.628906 131.753906 L 192.589844 131.804688 Z M 166.03125 153.265625 L 143.699219 171.253906 C 145.03125 171.714844 146.378906 172.125 147.738281 172.464844 L 167.78125 152.574219 C 167.199219 152.816406 166.621094 153.042969 166.019531 153.253906 Z M 162.070312 154.445312 L 138.988281 169.375 L 140.101562 169.824219 C 140.960938 170.214844 141.839844 170.566406 142.730469 170.894531 L 163.671875 154.023438 C 163.140625 154.175781 162.609375 154.316406 162.078125 154.445312 Z M 148.789062 155.203125 L 123.191406 159.015625 C 124 159.875 124.859375 160.703125 125.769531 161.496094 L 149.53125 155.285156 C 149.28125 155.253906 149.039062 155.234375 148.789062 155.203125 M 159.488281 154.976562 L 159.71875 154.875 L 159.289062 155.003906 C 158.988281 155.054688 158.691406 155.09375 158.390625 155.136719 L 134.441406 167.265625 C 135.46875 167.792969 136.519531 168.316406 137.628906 168.804688 L 138.039062 168.976562 L 159.78125 154.914062 C 159.679688 154.933594 159.589844 154.953125 159.488281 154.976562 Z M 200.648438 112.875 L 201.441406 160.773438 L 202.429688 160.125 C 203.980469 159.183594 205.570312 158.085938 207.191406 156.886719 L 201.511719 108.636719 C 201.25 110.113281 200.960938 111.535156 200.640625 112.875 Z M 115.488281 130.484375 C 115.449219 130.625 115.398438 130.765625 115.359375 130.90625 L 114.988281 132.613281 L 127.671875 143.804688 L 115.480469 130.484375 Z M 114.921875 133.144531 L 114.660156 135.464844 L 129.191406 145.734375 C 129.191406 145.734375 114.921875 133.144531 114.921875 133.144531 M 115.648438 145.566406 L 116.480469 148.304688 L 138.070312 152.214844 L 115.648438 145.554688 Z M 114.96875 142.265625 L 115.488281 144.945312 L 135.429688 150.863281 L 114.980469 142.265625 Z M 114.640625 136.023438 L 114.609375 138.484375 L 130.980469 147.574219 C 130.980469 147.574219 114.640625 136.023438 114.640625 136.023438 M 202.351562 102.625 L 208.609375 155.824219 C 210.480469 154.355469 212.390625 152.714844 214.300781 150.914062 L 202.660156 98.496094 C 202.589844 99.914062 202.480469 101.285156 202.351562 102.625 M 114.648438 139.074219 L 114.878906 141.65625 L 133.070312 149.304688 C 133.070312 149.304688 114.648438 139.074219 114.648438 139.074219 M 201.800781 79.964844 L 222.449219 142.175781 C 223.261719 141.183594 224.070312 140.175781 224.871094 139.125 L 227.621094 135.246094 L 201.25 76.714844 C 201.46875 77.792969 201.648438 78.875 201.808594 79.964844 Z M 197.550781 63.804688 C 197.738281 64.335938 197.929688 64.875 198.109375 65.40625 L 228.738281 133.386719 L 233.328125 125.285156 L 197.539062 63.804688 Z M 202.75 91.425781 L 215.660156 149.605469 C 217.511719 147.792969 219.351562 145.835938 221.160156 143.714844 L 202.578125 87.734375 C 202.660156 88.984375 202.710938 90.214844 202.738281 91.414062 Z M 126.449219 141.824219 L 115.648438 130.015625 C 115.851562 129.394531 116.089844 128.765625 116.351562 128.113281 L 126.449219 141.816406 Z M 41.320312 118.414062 L 36.949219 126.644531 L 74.390625 187.125 C 74.179688 186.605469 73.980469 186.074219 73.78125 185.535156 Z M 76.320312 85.15625 L 74.039062 125.234375 C 74.621094 123.945312 75.171875 122.84375 75.648438 121.953125 L 81.910156 82.394531 C 80.050781 83.234375 78.179688 84.15625 76.320312 85.15625 M 69.699219 171.085938 L 47.378906 109.453125 C 46.589844 110.464844 45.808594 111.496094 45.050781 112.566406 L 42.410156 116.515625 L 70.359375 174.304688 C 70.121094 173.234375 69.898438 172.15625 69.710938 171.074219 Z M 68.441406 159.65625 L 53.949219 101.84375 C 52.148438 103.703125 50.371094 105.714844 48.609375 107.875 L 68.699219 163.324219 C 68.589844 162.074219 68.5 160.84375 68.441406 159.644531 Z M 155.269531 110.226562 L 138.660156 101.585938 L 155.308594 112.683594 Z M 72.449219 129.253906 L 74.910156 85.933594 C 73.03125 86.984375 71.148438 88.125 69.28125 89.335938 L 71.191406 133.175781 C 71.601562 131.765625 72.019531 130.453125 72.449219 129.253906 M 146.710938 90.515625 L 122.941406 94.714844 C 123.109375 94.746094 123.289062 94.765625 123.460938 94.792969 L 148.898438 93.105469 C 148.210938 92.203125 147.488281 91.335938 146.710938 90.503906 Z M 143.480469 87.515625 L 119.898438 94.363281 C 120.148438 94.386719 120.398438 94.40625 120.640625 94.425781 L 146.121094 89.914062 C 145.289062 89.074219 144.410156 88.273438 143.46875 87.503906 Z M 153.820312 120.636719 C 154.070312 119.984375 154.28125 119.34375 154.46875 118.714844 L 143.351562 107.203125 L 153.820312 120.625 Z M 154.601562 118.246094 C 154.640625 118.105469 154.679688 117.964844 154.71875 117.824219 L 155.039062 116.105469 L 142.058594 105.265625 Z M 155.101562 115.574219 L 155.300781 113.246094 L 140.488281 103.375 Z M 154.21875 103.792969 L 134.128906 98.414062 L 154.808594 106.453125 Z M 149.378906 93.734375 L 125.789062 95.304688 C 125.871094 95.324219 125.949219 95.34375 126.03125 95.363281 L 151.128906 96.433594 C 150.578125 95.503906 150 94.59375 149.371094 93.734375 Z M 154.921875 107.066406 L 136.53125 99.914062 L 155.21875 109.636719 Z M 151.5 97.066406 L 128.5 96.085938 L 152.871094 99.816406 C 152.441406 98.863281 151.988281 97.945312 151.5 97.066406 M 83.339844 81.773438 L 77.449219 119.054688 L 77.480469 119.003906 C 77.480469 119.003906 78.058594 118.074219 79.148438 116.585938 L 88.851562 79.636719 C 87.019531 80.265625 85.179688 80.984375 83.328125 81.773438 Z M 153.140625 100.445312 L 131.449219 97.125 L 154.039062 103.175781 L 153.140625 100.453125 Z M 135.558594 82.40625 L 113.300781 94.453125 C 113.601562 94.425781 113.898438 94.40625 114.191406 94.386719 L 113.988281 94.453125 L 114.371094 94.375 L 114.449219 94.375 L 138.949219 84.304688 C 137.871094 83.644531 136.738281 83.015625 135.558594 82.414062 Z M 109.808594 75.90625 L 93.191406 102.523438 C 93.800781 102.085938 94.421875 101.65625 95.050781 101.226562 L 114.539062 76.105469 C 112.980469 75.964844 111.398438 75.90625 109.808594 75.90625 M 115.710938 76.226562 L 97.46875 99.734375 C 98.070312 99.386719 98.679688 99.042969 99.308594 98.726562 L 120.128906 76.90625 C 118.679688 76.613281 117.199219 76.386719 115.710938 76.226562 M 128.929688 79.574219 C 128.058594 79.214844 127.171875 78.886719 126.28125 78.574219 L 105.808594 96.003906 C 106.328125 95.835938 106.859375 95.683594 107.390625 95.535156 L 130.050781 79.984375 L 128.929688 79.566406 Z M 131.429688 80.523438 L 131.011719 80.363281 L 109.660156 95.015625 C 109.761719 94.996094 109.851562 94.964844 109.949219 94.945312 L 109.71875 95.042969 L 110.148438 94.90625 C 110.449219 94.84375 110.75 94.804688 111.050781 94.753906 L 134.660156 81.976562 C 133.621094 81.476562 132.550781 80.984375 131.429688 80.523438 M 121.210938 77.144531 L 101.710938 97.574219 C 102.28125 97.324219 102.859375 97.074219 103.449219 96.84375 L 125.28125 78.253906 C 123.941406 77.824219 122.578125 77.464844 121.199219 77.15625 Z M 68.53125 148.453125 L 60.828125 95.445312 C 59 96.964844 57.140625 98.65625 55.28125 100.503906 L 68.328125 152.59375 C 68.359375 151.175781 68.429688 149.792969 68.53125 148.464844 Z M 90.25 79.175781 L 81.078125 114.09375 C 81.609375 113.445312 82.191406 112.753906 82.828125 112.035156 L 95.648438 77.65625 C 93.859375 78.085938 92.058594 78.585938 90.261719 79.164062 Z M 103.550781 76.265625 L 88.980469 105.875 C 89.570312 105.355469 90.179688 104.84375 90.808594 104.335938 L 108.550781 75.925781 C 106.898438 75.964844 105.230469 76.074219 103.550781 76.265625 M 139.730469 84.792969 L 116.660156 94.273438 L 117.621094 94.273438 L 142.789062 86.953125 C 141.820312 86.195312 140.800781 85.476562 139.730469 84.792969 M 69.949219 138.15625 L 67.871094 90.292969 L 66.898438 90.964844 C 65.378906 91.945312 63.808594 93.085938 62.230469 94.335938 L 69.210938 142.414062 C 69.429688 140.933594 69.679688 139.503906 69.960938 138.15625 Z M 102.238281 76.425781 L 86.71875 107.953125 C 86.089844 108.554688 85.488281 109.164062 84.921875 109.753906 L 97 77.355469 C 98.75 76.976562 100.5 76.664062 102.230469 76.433594 Z M 102.238281 76.425781 "/>
<path fill-rule="nonzero" fill="rgb(98.399353%, 68.998718%, 25.099182%)" fill-opacity="1" d="M 167.921875 127.804688 L 158.441406 151.886719 C 159.589844 151.613281 160.738281 151.285156 161.878906 150.886719 L 168.359375 127.203125 C 168.210938 127.40625 168.070312 127.605469 167.921875 127.804688 M 166.128906 130.015625 L 154.28125 152.59375 C 155.410156 152.484375 156.53125 152.316406 157.640625 152.085938 L 166.480469 129.625 C 166.371094 129.753906 166.25 129.894531 166.140625 130.023438 Z M 169.628906 125.316406 L 162.710938 150.605469 C 163.859375 150.175781 165.011719 149.675781 166.160156 149.125 L 170.128906 124.503906 C 169.96875 124.785156 169.800781 125.054688 169.628906 125.316406 M 167.949219 75.074219 L 198.410156 101.085938 C 198.671875 99.054688 198.859375 96.984375 198.980469 94.875 L 166 71.984375 C 166.800781 73.15625 167.449219 74.195312 167.949219 75.074219 M 134.238281 147.824219 L 136.359375 149.074219 L 152.410156 139.425781 L 134.238281 147.816406 Z M 149.089844 55.15625 L 198.308594 76.296875 C 197.980469 73.933594 197.5 71.464844 196.898438 68.914062 L 145.671875 52.824219 C 146.871094 53.59375 148 54.375 149.089844 55.15625 M 199.109375 86.683594 L 160.730469 65.40625 C 161.71875 66.484375 162.621094 67.535156 163.421875 68.535156 L 199.070312 93.273438 C 199.160156 91.125 199.171875 88.925781 199.109375 86.695312 Z M 171.339844 122.335938 L 171.390625 122.125 L 171.261719 122.496094 C 171.261719 122.496094 171.230469 122.546875 171.21875 122.566406 L 167 148.714844 C 168.128906 148.136719 169.25 147.503906 170.378906 146.816406 L 171.738281 121.535156 C 171.609375 121.804688 171.46875 122.066406 171.339844 122.335938 Z M 139.820312 150.65625 L 142.398438 151.546875 L 157.480469 137.226562 Z M 184.191406 39.625 L 113.058594 39.945312 C 113.609375 40.046875 114.171875 40.144531 114.730469 40.253906 L 188.921875 47.65625 Z M 193.390625 57.496094 C 192.941406 56.296875 192.460938 55.09375 191.949219 53.875 L 189.960938 49.554688 L 126.089844 43.195312 C 127.128906 43.546875 128.160156 43.925781 129.179688 44.335938 L 193.390625 57.503906 Z M 139.578125 49.226562 L 196.441406 67.085938 C 195.789062 64.585938 195.011719 62.003906 194.089844 59.375 L 136.308594 47.523438 C 137.441406 48.085938 138.53125 48.644531 139.578125 49.226562 M 157.128906 61.746094 L 199.03125 84.976562 L 198.96875 83.796875 C 198.921875 81.984375 198.78125 80.054688 198.539062 78.046875 L 153.898438 58.875 C 155.050781 59.835938 156.140625 60.796875 157.140625 61.746094 Z M 131.878906 146.136719 L 133.761719 147.515625 L 149.921875 140.054688 Z M 146.46875 152.464844 C 147.5 152.59375 148.519531 152.695312 149.53125 152.734375 L 162.390625 133.636719 L 146.46875 152.453125 Z M 136.871094 149.335938 L 139.21875 150.425781 L 154.921875 138.484375 L 136.859375 149.335938 Z M 143 151.703125 L 145.789062 152.363281 L 159.960938 135.605469 Z M 164.289062 131.90625 L 150.261719 152.746094 C 151.339844 152.765625 152.421875 152.746094 153.480469 152.664062 L 164.46875 131.734375 C 164.410156 131.796875 164.351562 131.84375 164.289062 131.90625 M 175.039062 97.195312 L 189.988281 127.164062 C 190.820312 125.734375 191.601562 124.253906 192.320312 122.726562 L 174.691406 94.824219 C 174.820312 95.59375 174.941406 96.386719 175.039062 97.195312 M 175.390625 107.363281 L 183.109375 136.515625 C 184.121094 135.425781 185.078125 134.285156 186 133.105469 L 175.488281 105.265625 C 175.46875 105.953125 175.441406 106.65625 175.390625 107.355469 Z M 173.878906 115.914062 L 175.289062 143.363281 L 176.238281 142.636719 C 177.011719 142.074219 177.75 141.496094 178.480469 140.894531 L 174.308594 114.335938 C 174.179688 114.863281 174.039062 115.394531 173.878906 115.925781 Z M 174.828125 111.886719 L 179.269531 140.214844 C 180.339844 139.296875 181.359375 138.324219 182.339844 137.316406 L 175.109375 110.015625 C 175.03125 110.636719 174.929688 111.253906 174.820312 111.875 Z M 175.480469 102.425781 L 186.710938 132.164062 C 187.640625 130.90625 188.519531 129.59375 189.351562 128.234375 L 175.339844 100.15625 C 175.398438 100.90625 175.441406 101.65625 175.46875 102.425781 Z M 129.859375 144.304688 C 129.960938 144.414062 130.058594 144.523438 130.160156 144.625 L 131.460938 145.796875 L 147.488281 140.394531 L 129.871094 144.304688 Z M 128.230469 142.394531 C 128.660156 142.945312 129.089844 143.464844 129.519531 143.953125 L 145.140625 140.484375 L 128.21875 142.394531 Z M 169.511719 78.15625 C 169.511719 78.15625 170 79.136719 170.699219 80.84375 L 197.140625 108.425781 C 197.558594 106.535156 197.910156 104.585938 198.199219 102.605469 L 169.488281 78.09375 L 169.511719 78.144531 Z M 174.109375 91.816406 L 192.878906 121.515625 C 193.589844 119.914062 194.238281 118.265625 194.828125 116.574219 L 173.519531 89.34375 C 173.730469 90.136719 173.929688 90.964844 174.109375 91.816406 M 172.660156 86.355469 L 195.269531 115.246094 C 195.839844 113.496094 196.351562 111.695312 196.800781 109.855469 L 171.820312 83.785156 C 172.101562 84.574219 172.378906 85.433594 172.671875 86.355469 Z M 173.148438 118.125 L 174.480469 143.984375 L 174.128906 144.253906 C 173.148438 144.964844 172.179688 145.625 171.210938 146.246094 L 172.648438 119.433594 C 172.761719 119.15625 172.878906 118.875 172.988281 118.585938 L 173.089844 118.144531 L 173.058594 118.394531 C 173.089844 118.304688 173.121094 118.203125 173.160156 118.113281 Z M 101.269531 172.40625 C 101.269531 172.40625 100.75 171.433594 100.011719 169.746094 L 72.859375 142.863281 C 72.488281 144.765625 72.191406 146.726562 71.949219 148.714844 L 101.289062 172.464844 L 101.269531 172.414062 Z M 95.898438 134.773438 L 93.769531 107.375 L 92.839844 108.136719 C 92.089844 108.714844 91.359375 109.316406 90.648438 109.933594 L 95.511719 136.386719 C 95.628906 135.855469 95.75 135.316406 95.898438 134.785156 Z M 102.921875 175.453125 L 71.789062 150.253906 C 71.589844 152.285156 71.449219 154.363281 71.378906 156.476562 L 104.949219 178.484375 C 104.121094 177.335938 103.449219 176.316406 102.921875 175.445312 Z M 95.058594 138.824219 L 89.871094 110.625 C 88.828125 111.574219 87.828125 112.566406 86.878906 113.605469 L 94.820312 140.703125 C 94.890625 140.085938 94.960938 139.453125 95.058594 138.835938 Z M 95.230469 153.515625 L 79.5 123.945312 C 78.710938 125.394531 77.96875 126.894531 77.289062 128.445312 L 95.648438 155.863281 C 95.5 155.09375 95.359375 154.304688 95.238281 153.503906 Z M 97.898438 164.285156 L 74.539062 135.996094 C 74.019531 137.753906 73.550781 139.566406 73.160156 141.425781 L 98.820312 166.835938 C 98.519531 166.054688 98.210938 165.203125 97.910156 164.296875 Z M 96.308594 158.863281 L 76.769531 129.664062 C 76.101562 131.273438 75.5 132.945312 74.949219 134.65625 L 96.96875 161.316406 C 96.738281 160.523438 96.519531 159.703125 96.308594 158.863281 M 94.648438 148.296875 L 82.640625 118.855469 C 81.738281 120.136719 80.890625 121.476562 80.101562 122.855469 L 94.839844 150.554688 C 94.761719 149.804688 94.699219 149.054688 94.648438 148.296875 M 94.609375 143.355469 L 86.128906 114.414062 C 85.148438 115.523438 84.21875 116.695312 83.328125 117.90625 L 94.570312 145.453125 C 94.570312 144.765625 94.578125 144.066406 94.609375 143.355469 M 96.671875 132.253906 L 96.648438 132.503906 L 96.738281 132.066406 C 96.839844 131.773438 96.949219 131.496094 97.058594 131.214844 L 97.800781 104.375 C 96.839844 105.023438 95.890625 105.703125 94.929688 106.445312 L 94.578125 106.726562 L 96.589844 132.546875 C 96.621094 132.453125 96.648438 132.355469 96.679688 132.265625 Z M 98.25 128.515625 L 98.371094 128.144531 C 98.371094 128.144531 98.398438 128.09375 98.410156 128.066406 L 101.941406 101.804688 C 100.828125 102.414062 99.71875 103.074219 98.609375 103.796875 L 97.910156 129.105469 C 98.039062 128.835938 98.160156 128.566406 98.289062 128.296875 L 98.25 128.503906 Z M 134.699219 101.84375 L 132.550781 100.644531 L 116.761719 110.703125 L 134.699219 101.835938 Z M 129.058594 99.164062 L 126.460938 98.34375 L 111.761719 113.054688 Z M 131.960938 200.554688 L 74.648438 184.195312 C 75.371094 186.683594 76.210938 189.234375 77.210938 191.835938 L 135.28125 202.164062 C 134.140625 201.636719 133.03125 201.105469 131.960938 200.554688 M 132.019531 100.394531 L 129.640625 99.363281 L 114.25 111.714844 L 132.011719 100.394531 Z M 142.480469 205.175781 L 77.941406 193.695312 C 78.421875 194.886719 78.929688 196.074219 79.46875 197.273438 L 81.570312 201.546875 L 145.601562 206.234375 C 144.550781 205.90625 143.511719 205.554688 142.480469 205.175781 Z M 140.839844 107.105469 C 140.398438 106.566406 139.949219 106.054688 139.511719 105.585938 L 123.980469 109.464844 Z M 157.039062 208.875 L 82.679688 203.425781 L 87.621094 211.324219 L 158.71875 209.136719 C 158.160156 209.054688 157.601562 208.953125 157.039062 208.863281 Z M 137.101562 103.476562 L 135.179688 102.144531 L 119.230469 110.035156 L 137.101562 103.484375 Z M 139.160156 105.246094 C 139.058594 105.136719 138.949219 105.035156 138.851562 104.933594 L 137.519531 103.796875 L 121.640625 109.613281 Z M 101.558594 122.753906 L 110.398438 98.433594 C 109.261719 98.734375 108.121094 99.09375 106.988281 99.523438 L 101.128906 123.375 C 101.269531 123.164062 101.410156 122.964844 101.550781 122.765625 Z M 99.921875 125.285156 L 106.171875 99.824219 C 105.03125 100.285156 103.898438 100.816406 102.761719 101.394531 L 99.441406 126.113281 C 99.601562 125.835938 99.761719 125.554688 99.921875 125.285156 M 125.828125 98.203125 L 123.019531 97.625 L 109.300781 114.746094 Z M 107.628906 181.90625 L 71.339844 158.113281 C 71.308594 160.273438 71.351562 162.464844 71.46875 164.695312 L 110.390625 184.964844 C 109.371094 183.90625 108.449219 182.886719 107.621094 181.90625 Z M 114.089844 188.515625 L 71.601562 166.386719 L 71.699219 167.566406 C 71.789062 169.375 71.988281 171.296875 72.28125 173.296875 L 117.410156 191.285156 C 116.238281 190.355469 115.121094 189.425781 114.101562 188.503906 Z M 122.300781 194.894531 L 72.539062 175.054688 C 72.941406 177.40625 73.46875 179.855469 74.148438 182.394531 L 125.789062 197.136719 C 124.570312 196.394531 123.421875 195.644531 122.308594 194.894531 Z M 105.070312 118.566406 L 118.550781 97.363281 C 117.46875 97.363281 116.390625 97.425781 115.328125 97.535156 L 104.898438 118.746094 L 105.070312 118.574219 Z M 122.351562 97.546875 C 121.320312 97.433594 120.289062 97.375 119.28125 97.355469 L 106.929688 116.785156 Z M 102.96875 120.914062 L 111.21875 98.226562 C 112.328125 97.964844 113.441406 97.765625 114.558594 97.625 L 103.300781 120.503906 C 103.191406 120.636719 103.078125 120.773438 102.96875 120.914062 "/>
<path fill-rule="nonzero" fill="rgb(93.699646%, 25.498962%, 21.199036%)" fill-opacity="1" d="M 121.5 72.554688 L 157.789062 67.15625 C 156.550781 65.796875 155.238281 64.464844 153.859375 63.164062 L 118.859375 72.023438 C 119.679688 72.175781 120.570312 72.355469 121.511719 72.554688 Z M 132.101562 75.824219 L 165.539062 77.613281 C 164.710938 76.183594 163.800781 74.785156 162.828125 73.394531 L 129.871094 74.953125 C 130.609375 75.226562 131.351562 75.515625 132.101562 75.816406 Z M 126.960938 73.996094 L 162.058594 72.335938 C 161.019531 70.933594 159.910156 69.554688 158.71875 68.203125 L 124.519531 73.296875 C 125.308594 73.503906 126.128906 73.746094 126.960938 73.996094 M 136.871094 78.035156 L 168.28125 82.945312 C 167.640625 81.515625 166.941406 80.09375 166.171875 78.703125 L 134.828125 77.023438 C 135.511719 77.34375 136.191406 77.675781 136.871094 78.035156 M 144.769531 83.265625 L 171.601562 93.386719 C 171.328125 92.003906 170.988281 90.636719 170.601562 89.285156 L 143.289062 82.09375 C 143.789062 82.476562 144.28125 82.863281 144.769531 83.265625 M 141.121094 80.546875 L 170.28125 88.226562 C 169.828125 86.816406 169.320312 85.414062 168.738281 84.023438 L 139.339844 79.425781 C 139.941406 79.785156 140.53125 80.15625 141.109375 80.546875 Z M 109.351562 71.09375 L 147 57.433594 C 145.359375 56.214844 143.660156 55.023438 141.878906 53.875 L 105.699219 71.265625 C 107.109375 71.144531 108.339844 71.09375 109.351562 71.09375 M 132.238281 48.425781 C 130.640625 47.574219 128.890625 46.746094 127.03125 45.964844 L 88.320312 75.324219 C 89.730469 74.804688 91.101562 74.324219 92.410156 73.925781 L 133.300781 48.945312 L 132.238281 48.414062 Z M 118.28125 42.875 L 78.988281 79.484375 C 80.25 78.824219 81.488281 78.226562 82.710938 77.664062 L 125.390625 45.285156 C 123.179688 44.414062 120.789062 43.605469 118.28125 42.875 M 112.808594 71.246094 C 112.808594 71.246094 113.898438 71.304688 115.738281 71.535156 L 152.78125 62.15625 C 151.339844 60.855469 149.820312 59.59375 148.238281 58.363281 L 112.761719 71.234375 L 112.820312 71.234375 Z M 140.519531 53.003906 C 138.691406 51.863281 136.789062 50.773438 134.820312 49.714844 L 97.371094 72.585938 C 98.800781 72.253906 100.148438 71.996094 101.421875 71.796875 L 140.511719 53.003906 Z M 108.589844 40.605469 L 69.761719 85.003906 C 70.800781 84.304688 71.828125 83.636719 72.851562 82.996094 L 116.449219 42.363281 C 113.949219 41.695312 111.328125 41.09375 108.589844 40.605469 M 147.808594 86.074219 L 172.378906 98.394531 L 172.210938 97.214844 C 172.101562 96.273438 171.960938 95.34375 171.800781 94.40625 L 146.640625 84.914062 C 147.039062 85.296875 147.429688 85.675781 147.808594 86.074219 Z M 102.761719 39.746094 L 98.019531 39.34375 L 60.949219 91.753906 C 61.769531 91.023438 62.609375 90.316406 63.460938 89.625 L 106.609375 40.285156 C 105.351562 40.085938 104.058594 39.90625 102.761719 39.746094 M 86.53125 39.464844 L 51.691406 101.484375 C 52.050781 101.054688 52.421875 100.613281 52.78125 100.183594 L 95.839844 39.316406 Z M 157.671875 116.335938 L 156 136.273438 L 158.140625 135.054688 Z M 160.730469 133.226562 L 158.101562 113.675781 L 158.628906 134.734375 L 160.738281 133.226562 Z M 156.988281 118.816406 L 153.378906 137.503906 L 155.511719 136.554688 L 156.988281 118.824219 Z M 152.128906 91.445312 L 151.96875 91.296875 L 152.21875 91.585938 C 152.21875 91.585938 152.25 91.636719 152.261719 91.65625 L 172.921875 108.234375 C 172.980469 106.964844 172.980469 105.675781 172.929688 104.355469 L 151.621094 90.695312 C 151.789062 90.945312 151.949219 91.195312 152.109375 91.445312 Z M 163.25 131.035156 L 158.238281 110.84375 L 161.199219 132.835938 Z M 150.308594 138.476562 L 155.011719 123.175781 L 148.320312 138.835938 C 149.011719 138.734375 149.671875 138.613281 150.308594 138.476562 M 152.871094 137.703125 L 156.078125 121.105469 L 150.78125 138.363281 C 150.921875 138.335938 151.070312 138.296875 151.210938 138.265625 L 152.871094 137.714844 Z M 149.578125 88.015625 L 149.378906 87.863281 L 149.710938 88.175781 C 149.898438 88.40625 150.089844 88.644531 150.28125 88.886719 L 172.878906 103.375 C 172.820312 102.226562 172.730469 101.046875 172.589844 99.84375 L 172.53125 99.40625 L 149.378906 87.796875 C 149.441406 87.875 149.511719 87.945312 149.578125 88.015625 Z M 167.820312 125.40625 L 157.558594 104.796875 L 166.070312 127.933594 C 166.691406 127.105469 167.28125 126.265625 167.820312 125.40625 M 171.238281 118.046875 L 156.070312 99.273438 C 156.128906 99.445312 156.191406 99.605469 156.25 99.773438 L 170.03125 121.226562 C 170.488281 120.183594 170.890625 119.136719 171.238281 118.054688 Z M 169.71875 121.933594 L 156.941406 102.046875 C 156.960938 102.125 156.980469 102.203125 157 102.285156 L 168.199219 124.773438 C 168.75 123.84375 169.269531 122.894531 169.71875 121.933594 M 172.308594 113.765625 L 154.910156 96.433594 C 155.011719 96.664062 155.109375 96.886719 155.210938 97.113281 L 171.480469 117.246094 C 171.808594 116.113281 172.089844 114.953125 172.308594 113.765625 M 165.648438 128.476562 L 158.070312 107.886719 L 163.699219 130.585938 L 165.648438 128.484375 Z M 172.871094 109.175781 L 153.421875 93.566406 C 153.578125 93.84375 153.730469 94.125 153.878906 94.40625 L 172.460938 112.90625 C 172.660156 111.695312 172.789062 110.445312 172.871094 109.175781 M 218.089844 149.625 L 174.390625 210.035156 L 183.699219 209.984375 L 219.191406 148.335938 C 218.828125 148.765625 218.449219 149.195312 218.078125 149.625 Z M 129.550781 168.335938 L 100.46875 160.34375 C 100.898438 161.765625 101.398438 163.164062 101.96875 164.554688 L 131.320312 169.464844 C 130.730469 169.105469 130.140625 168.726562 129.558594 168.324219 Z M 125.929688 165.574219 L 99.210938 155.175781 C 99.46875 156.554688 99.789062 157.925781 100.171875 159.285156 L 127.398438 166.765625 C 126.910156 166.386719 126.421875 165.984375 125.929688 165.574219 M 133.78125 170.894531 L 102.421875 165.65625 C 103.039062 167.09375 103.730469 168.515625 104.488281 169.914062 L 135.808594 171.925781 C 135.128906 171.59375 134.460938 171.253906 133.789062 170.894531 Z M 178.191406 175.476562 L 137.039062 200.003906 L 138.089844 200.546875 C 139.679688 201.414062 141.421875 202.253906 143.269531 203.066406 L 182.289062 174.113281 C 180.878906 174.625 179.5 175.085938 178.191406 175.476562 M 207.300781 160.074219 L 163.628906 208.964844 C 164.890625 209.175781 166.171875 209.375 167.480469 209.546875 L 172.210938 209.996094 L 209.828125 157.976562 C 209 158.695312 208.148438 159.394531 207.289062 160.074219 Z M 187.929688 171.84375 L 144.910156 203.765625 C 147.109375 204.664062 149.488281 205.496094 152 206.253906 L 191.671875 170.066406 C 190.398438 170.714844 189.160156 171.304688 187.941406 171.84375 Z M 169.171875 177.503906 L 129.859375 195.886719 C 131.679688 197.046875 133.570312 198.15625 135.53125 199.234375 L 173.21875 176.765625 C 171.78125 177.074219 170.429688 177.324219 169.171875 177.515625 Z M 197.839844 166.613281 L 153.808594 206.785156 C 156.300781 207.484375 158.910156 208.105469 161.648438 208.625 L 200.941406 164.636719 C 199.890625 165.324219 198.851562 165.984375 197.828125 166.613281 Z M 143.640625 175.046875 L 108.53125 176.335938 C 109.550781 177.753906 110.648438 179.136719 111.820312 180.503906 L 146.070312 175.773438 C 145.28125 175.554688 144.46875 175.316406 143.640625 175.046875 M 138.519531 173.15625 L 105.101562 171.003906 C 105.921875 172.445312 106.808594 173.855469 107.769531 175.246094 L 140.75 174.035156 C 140.019531 173.765625 139.269531 173.464844 138.53125 173.144531 Z M 157.769531 177.945312 C 157.769531 177.945312 156.679688 177.875 154.851562 177.613281 L 117.710938 186.59375 C 119.140625 187.90625 120.640625 189.195312 122.210938 190.433594 L 157.828125 177.945312 Z M 149.089844 176.546875 L 112.75 181.566406 C 113.980469 182.933594 115.269531 184.285156 116.640625 185.59375 L 151.738281 177.105469 C 150.921875 176.945312 150.03125 176.765625 149.101562 176.546875 Z M 161.230469 178.144531 L 123.429688 191.394531 C 125.050781 192.636719 126.75 193.84375 128.511719 195.003906 L 164.878906 178.003906 C 163.46875 178.105469 162.238281 178.144531 161.230469 178.136719 Z M 113.410156 132.355469 L 115.289062 112.425781 L 113.140625 113.625 L 113.410156 132.34375 Z M 120.089844 110.515625 L 118.421875 111.046875 L 115.03125 127.613281 L 120.511719 110.414062 C 120.371094 110.445312 120.21875 110.476562 120.078125 110.515625 Z M 114.121094 129.894531 L 117.929688 111.246094 L 115.789062 112.175781 Z M 103.351562 123.195312 L 113.390625 143.90625 L 105.121094 120.683594 C 104.488281 121.503906 103.890625 122.34375 103.351562 123.195312 M 107.980469 117.613281 L 112.769531 137.855469 L 110.039062 115.835938 L 107.96875 117.613281 Z M 105.550781 120.15625 L 112.910156 140.824219 L 107.519531 118.074219 Z M 112.648438 113.964844 L 110.53125 115.453125 L 112.960938 135.035156 L 112.660156 113.976562 Z M 122.929688 162.753906 L 98.488281 150.175781 L 98.648438 151.363281 C 98.75 152.304688 98.878906 153.246094 99.03125 154.175781 L 124.089844 163.933594 C 123.699219 163.554688 123.308594 163.164062 122.929688 162.765625 Z M 118.679688 157.324219 L 118.839844 157.476562 L 118.589844 157.183594 C 118.589844 157.183594 118.558594 157.136719 118.550781 157.113281 L 98.058594 140.316406 C 97.988281 141.574219 97.96875 142.875 98 144.195312 L 119.171875 158.085938 C 119.011719 157.835938 118.839844 157.585938 118.679688 157.335938 Z M 120.988281 110.316406 L 116.128906 125.566406 L 122.980469 109.984375 C 122.289062 110.074219 121.621094 110.183594 120.988281 110.324219 Z M 121.179688 160.785156 L 121.378906 160.933594 L 121.050781 160.625 C 120.859375 160.394531 120.679688 160.144531 120.488281 159.90625 L 98.039062 145.175781 C 98.089844 146.335938 98.171875 147.503906 98.289062 148.703125 L 98.351562 149.144531 L 121.371094 160.996094 C 121.308594 160.914062 121.238281 160.84375 121.179688 160.773438 Z M 101.410156 126.65625 L 113.980469 146.675781 C 113.960938 146.59375 113.941406 146.515625 113.921875 146.433594 L 102.960938 123.824219 C 102.398438 124.753906 101.878906 125.695312 101.410156 126.65625 M 98.109375 139.375 L 117.390625 155.183594 C 117.230469 154.90625 117.078125 154.625 116.941406 154.34375 L 98.558594 135.65625 C 98.351562 136.863281 98.199219 138.105469 98.109375 139.375 M 99.839844 130.523438 L 114.808594 149.453125 C 114.75 149.285156 114.691406 149.125 114.640625 148.953125 L 101.078125 127.355469 C 100.609375 128.386719 100.191406 129.433594 99.828125 130.515625 Z M 99.589844 131.316406 L 115.640625 151.613281 C 115.738281 151.84375 115.828125 152.066406 115.941406 152.296875 L 98.71875 134.785156 C 98.949219 133.605469 99.238281 132.445312 99.589844 131.316406 "/>
</svg>
